<svg width="52" height="60" viewBox="0 0 52 60" fill="none" xmlns="http://www.w3.org/2000/svg">
<path fill-rule="evenodd" clip-rule="evenodd" d="M34 30V56.6667C34 58.6667 36 60 37.3333 60C39.3333 60 41.3333 58.6667 41.3333 56.6667V36.6667C42.6667 36 44.6667 34 44.6667 31.3333V20C44.6667 17.3333 42 14.6667 39.3333 14.6667C36.6667 14.6667 34 17.3333 34 20V30ZM6.66667 31.3333H8.66667V46.6667L1.33333 44L3.33333 37.3333H2C0.666667 37.3333 0 36 0 34.6667L4 20C5.33333 16 9.33333 14.6667 10 14.6667H17.3333H20.6667L9.33333 30.6667V23.3333H8.66667L6.66667 31.3333ZM25.3333 23.3333H24.6667V56.6667C24.6667 58.6667 23.3333 60 21.3333 60C19.3333 60 18 58.6667 18 56.6667V36.6667H16.6667V56.6667C16.6667 58.6667 14.6667 60 12.6667 60C11.3333 60 9.33333 58.6667 9.33333 56.6667V34.6667L24 14.6667C28 14.6667 30.6667 17.3333 30.6667 21.3333V36C30.6667 37.3333 29.3333 38.6667 28 38.6667C26.6667 38.6667 25.3333 37.3333 25.3333 36V23.3333ZM17.3333 0C20.6667 0 24 2.66667 24 6C24 10 20.6667 12.6667 17.3333 12.6667C14 12.6667 11.3333 10 11.3333 6C11.3333 2.66667 14 0 17.3333 0ZM36.6667 0C40 0 42.6667 2.66667 42.6667 6C42.6667 10 40 12.6667 36.6667 12.6667C33.3333 12.6667 30.6667 10 30.6667 6C30.6667 2.66667 33.3333 0 36.6667 0ZM45.3333 17.3333C48.6667 17.3333 52 20 52 24V32.6667C52 34 50.6667 34.6667 49.3333 34.6667H45.3333V17.3333Z" fill="#FF6B35"/>
</svg>
