<svg width="53" height="60" viewBox="0 0 53 60" fill="none" xmlns="http://www.w3.org/2000/svg">
<path d="M51.0275 16.8934C50.1588 16.3641 49.1361 16.2057 48.1487 16.4464C47.1551 16.6885 46.3171 17.3061 45.7878 18.1834L41.3807 25.4987C41.2306 25.7485 40.9931 25.9237 40.712 25.9922C40.4355 26.06 40.1474 26.015 39.9031 25.8665L36.8764 24.0236C38.2921 20.8579 37.1652 17.0419 34.1371 15.199L21.8789 7.7352C20.2748 6.75816 18.3873 6.46573 16.5649 6.91046C14.7302 7.35824 13.1813 8.49902 12.2038 10.1211L6.9373 18.8635C5.85259 20.6637 6.42866 23.0169 8.22119 24.1082C9.08988 24.6374 10.1125 24.7958 11.1 24.5544C12.0935 24.3123 12.9316 23.6946 13.4609 22.8174L17.8679 15.5021C18.0181 15.2523 18.2555 15.0771 18.5367 15.0086C18.814 14.9408 19.1012 14.9858 19.3456 15.1343L22.3286 16.9505L14.5686 29.8318C14.5517 29.8593 14.5364 29.8867 14.5203 29.9141C14.515 29.9217 14.5096 29.9293 14.505 29.9369L0.635864 52.9596C-0.622739 55.0485 0.0452468 57.7786 2.12581 59.045C2.82597 59.4715 3.61193 59.69 4.41091 59.69C4.76175 59.69 5.1149 59.6481 5.46421 59.5629C6.61633 59.2818 7.58844 58.566 8.20127 57.5478L18.5282 40.4034L27.445 45.8324C28.1267 46.2474 28.3443 47.1445 27.9306 47.8314L24.655 53.2695C23.3964 55.3592 24.0644 58.0885 26.145 59.3549C26.8451 59.7814 27.6311 60 28.4301 60C28.7809 60 29.1341 59.9581 29.4834 59.8728C30.6355 59.5918 31.6076 58.8759 32.2204 57.8578L37.6065 48.9166C39.3737 45.9824 38.4361 42.1489 35.5159 40.3715L29.3532 36.6194L32.9819 30.5949L37.3713 33.2679C38.4859 33.9464 39.7376 34.2952 41.0092 34.2952C41.5669 34.2952 42.1292 34.2282 42.6853 34.0926C44.52 33.6448 46.0689 32.5041 47.0464 30.882L52.3129 22.1396C53.3961 20.3378 52.82 17.9854 51.0275 16.8934ZM6.88675 56.7657C6.48534 57.4321 5.85029 57.9004 5.09804 58.084C4.35345 58.266 3.58205 58.1456 2.92556 57.7466C1.55894 56.9142 1.12153 55.1185 1.95039 53.7425L13.6218 34.3675C13.6264 34.4018 13.6317 34.4368 13.6371 34.4711C13.6394 34.4886 13.6424 34.5069 13.6447 34.5244C13.6601 34.6226 13.6777 34.7201 13.6968 34.8176C13.7007 34.8351 13.7045 34.8526 13.7076 34.8701C13.7282 34.9714 13.7512 35.072 13.7765 35.1725C14.2285 36.956 15.3408 38.4638 16.9088 39.418L17.2214 39.6084L6.88675 56.7657ZM27.9046 37.5241L34.7139 41.6699C36.9209 43.014 37.6279 45.9131 36.2904 48.1338L30.9044 57.0749C30.503 57.7413 29.8679 58.2096 29.1157 58.3931C28.3711 58.5751 27.5997 58.4548 26.9432 58.0558C25.5766 57.2234 25.1392 55.4277 25.968 54.0516L29.2436 48.6135C30.087 47.2131 29.6389 45.3823 28.2439 44.5332L18.6692 38.7029L18.6677 38.7022L17.7086 38.1181C15.1952 36.5889 14.351 33.2648 15.8264 30.7084C15.8287 30.7038 15.831 30.7 15.8333 30.6954C15.8471 30.6711 15.8609 30.6467 15.8785 30.6185L24.0307 17.0861C24.2467 16.7274 24.1318 16.2636 23.7733 16.0451L20.1431 13.8351C19.7286 13.583 19.2644 13.4536 18.7918 13.4536C18.5842 13.4536 18.3758 13.4787 18.169 13.5289C17.488 13.695 16.9134 14.1176 16.5511 14.7192L12.1441 22.0345C11.8269 22.5607 11.3259 22.9301 10.7323 23.0755C10.1447 23.2187 9.53648 23.1243 9.0194 22.809C7.94005 22.1518 7.59457 20.7323 8.24953 19.6456L13.5161 10.9032C14.2821 9.63218 15.4932 8.73967 16.928 8.38936C18.3505 8.0421 19.8236 8.27056 21.0769 9.03362L33.3366 16.4982C35.8951 18.0555 36.7163 21.4154 35.1705 23.9909L32.0619 29.1518L27.6457 36.4831C27.4312 36.8418 27.5461 37.3055 27.9046 37.5241ZM50.9976 21.356L45.7311 30.0984C44.9658 31.3694 43.7539 32.2619 42.3191 32.6122C40.8966 32.9595 39.4235 32.731 38.1703 31.9679L33.7678 29.2873L36.1349 25.3578L39.1041 27.1657C39.7001 27.5282 40.401 27.6371 41.0789 27.4719C41.7599 27.3058 42.3345 26.8832 42.6968 26.2816L47.1038 18.9663C47.421 18.4401 47.922 18.0707 48.5156 17.9253C49.1032 17.7821 49.7114 17.8765 50.2285 18.1918C51.3071 18.8498 51.6518 20.2685 50.9976 21.356Z" fill="#FF6B35"/>
<path d="M27.9046 37.5241L34.7139 41.6699C36.9209 43.014 37.6279 45.9131 36.2904 48.1338L30.9044 57.0749C30.503 57.7413 29.8679 58.2096 29.1157 58.3931C28.3711 58.5751 27.5997 58.4548 26.9432 58.0558C25.5766 57.2234 25.1392 55.4277 25.968 54.0516L29.2436 48.6135C30.087 47.2131 29.6389 45.3823 28.2439 44.5332L18.6692 38.7029L18.6677 38.7022L17.7086 38.1181C15.1952 36.5889 14.351 33.2648 15.8264 30.7084C15.8287 30.7038 15.831 30.7 15.8333 30.6954C15.8471 30.6711 15.8609 30.6467 15.8785 30.6185L24.0307 17.0861C24.2467 16.7274 24.1318 16.2636 23.7733 16.0451L20.1431 13.8351C19.7286 13.583 19.2644 13.4536 18.7918 13.4536C18.5842 13.4536 18.3758 13.4787 18.169 13.5289C17.488 13.695 16.9134 14.1176 16.5511 14.7192L12.1441 22.0345C11.8269 22.5607 11.3259 22.9301 10.7323 23.0755C10.1447 23.2187 9.53648 23.1243 9.0194 22.809C7.94005 22.1518 7.59457 20.7323 8.24953 19.6456L13.5161 10.9032C14.2821 9.63218 15.4932 8.73967 16.928 8.38936C18.3505 8.0421 19.8236 8.27056 21.0769 9.03362L33.3366 16.4982C35.8951 18.0555 36.7163 21.4154 35.1705 23.9909L32.0619 29.1518L27.6457 36.4831C27.4312 36.8418 27.5461 37.3055 27.9046 37.5241Z" fill="#FF6B35"/>
<path d="M34.2711 12.772C35.3566 13.433 36.5754 13.7719 37.8133 13.7719C38.3564 13.7719 38.9041 13.7064 39.445 13.5746C41.2314 13.1383 42.7397 12.028 43.6911 10.4485C45.6453 7.2044 44.6081 2.96571 41.38 1.00019C39.818 0.0490397 37.9803 -0.235773 36.2054 0.197539C34.419 0.633898 32.9106 1.74421 31.9592 3.32363C30.0058 6.56776 31.0423 10.8057 34.2711 12.772ZM33.2737 4.10573C34.0137 2.87737 35.1842 2.01456 36.5708 1.67644C37.9451 1.3406 39.3691 1.56144 40.5795 2.29861C43.0951 3.83005 43.901 7.13511 42.3766 9.66568C41.6366 10.894 40.4661 11.7568 39.0796 12.095C37.7053 12.4308 36.2812 12.2092 35.0709 11.4728C32.556 9.94135 31.7493 6.6363 33.2737 4.10573Z" fill="#FF6B35"/>
<path d="M33.2737 4.10573C34.0137 2.87737 35.1842 2.01456 36.5708 1.67644C37.9451 1.3406 39.3691 1.56144 40.5795 2.29861C43.0951 3.83005 43.901 7.13511 42.3766 9.66568C41.6366 10.894 40.4661 11.7568 39.0796 12.095C37.7053 12.4308 36.2812 12.2092 35.0709 11.4728C32.556 9.94135 31.7493 6.6363 33.2737 4.10573Z" fill="#FF6B35"/>
</svg>
