<svg width="62" height="60" viewBox="0 0 62 60" fill="none" xmlns="http://www.w3.org/2000/svg">
<path d="M33.5953 13.4946C33.4449 13.4753 33.2929 13.4946 33.1448 13.5418C33.0824 11.821 32.7597 10.1784 32.2219 8.66799C30.8142 4.70521 27.9381 1.65812 24.4095 0.501147C23.4079 0.177103 22.3572 0 21.2675 0C16.3469 0 12.1191 3.57995 10.3124 8.66799C9.77534 10.1784 9.45343 11.8249 9.38562 13.5464C9.23908 13.4954 9.08319 13.4753 8.93198 13.4954C7.9943 13.6215 7.4331 15.1728 7.68018 16.957C7.92571 18.7412 8.88911 20.083 9.82756 19.9569C10.0115 19.9291 10.1775 19.8494 10.3295 19.728C12.1472 24.7913 16.3648 28.355 21.2683 28.355C22.358 28.355 23.4087 28.1779 24.4103 27.85C27.9233 26.7015 30.7924 23.6707 32.2032 19.7319C32.3544 19.8533 32.5212 19.9291 32.7013 19.9569C33.639 20.083 34.6024 18.7412 34.8494 16.957C35.0965 15.1728 34.5338 13.6207 33.5953 13.4946ZM24.4087 25.5044C23.4219 25.9235 22.365 26.1517 21.2668 26.1517C15.9322 26.1517 11.593 20.7798 11.593 14.1775C11.593 13.0329 11.7286 11.9239 11.9703 10.8737C12.8378 9.75767 14.0506 9.01136 15.3921 8.66799C16.4817 8.39189 17.6556 8.38338 18.7928 8.66799C20.2254 9.02683 21.605 9.85125 22.6908 11.19C23.2442 11.8651 23.8241 12.4328 24.4087 12.8983C27.1781 15.1164 30.0823 15.1999 30.9047 15.1759C30.5835 19.9794 27.9622 23.9855 24.4087 25.5044Z" fill="#FF6B35"/>
<path d="M30.0426 47.1975V53.8129H4.17889C1.87172 53.8129 0.00103927 52.1943 0.00103927 49.9051C0.00103927 49.8819 0.00103904 49.9461 0.00415684 49.9461C0.00103904 49.9461 0.00103927 49.9461 0.00103927 49.9461C-0.00129908 49.1727 0.00103927 48.9121 0.00103927 48.7705L0.0953529 43.5657C0.0953529 40.7166 0.867008 38.1096 2.29028 35.8675C4.89286 31.7632 9.44173 29.0649 14.6843 29.0649H15.0366C15.9299 29.0649 16.8387 30.003 17.8574 30.3364C17.8574 30.3364 18.1848 31.8738 18.6681 33.9519C18.8138 34.559 18.9268 35.1413 19.0866 35.8297C20.0329 39.876 21.4811 44.8743 21.4811 46.3793C21.8311 44.8743 23.008 39.7893 23.9559 35.7454C24.1164 35.0594 24.2653 34.3471 24.4079 33.74C24.8943 31.6643 25.2412 30.3426 25.2412 30.3426C26.2591 30.0116 27.1921 29.0649 28.0807 29.0649H28.4361C33.6429 29.0649 38.1894 31.655 40.7982 35.7175C40.6618 35.9116 40.5355 36.0253 40.4225 36.0253H34.6055C32.3981 36.0253 30.0426 37.5334 30.0426 39.9239V46.6932V47.1975Z" fill="#FF6B35"/>
<path d="M57.3233 49.9461H54.2055V47.626H39.396V49.9461H36.2782V47.626H31.6015V56.2313C31.6015 57.9513 32.8736 60 34.6063 60H58.5268C60.2611 60 62 57.9513 62 56.2313V47.626H57.3233V49.9461Z" fill="#FF6B35"/>
<path d="M58.5276 37.5721H52.0566C51.2935 35.252 49.1266 34.2118 46.5669 34.2118C44.008 34.2118 41.8411 35.252 41.0773 37.5721H34.6063C32.8736 37.5721 31.6015 38.2024 31.6015 39.9224V46.8526H36.2782V45.3059H39.396V46.8526H54.2055V45.3059H57.3233V46.8526H62V39.9224C62 38.2024 60.2611 37.5721 58.5276 37.5721ZM43.6245 37.5721C44.1327 36.0254 45.2263 36.1019 46.4976 36.1019C47.7681 36.1019 48.8601 36.0254 49.369 37.5721H43.6245Z" fill="#FF6B35"/>
</svg>
